<?xml version="1.0" encoding="utf-8"?>
<!-- Generator: Adobe Illustrator 23.0.6, SVG Export Plug-In . SVG Version: 6.00 Build 0)  -->
<svg version="1.1"
	 id="svg2" inkscape:export-filename="C:\Adam\troposphir.png" inkscape:export-xdpi="90" inkscape:export-ydpi="90" inkscape:version="0.48.4 r" sodipodi:docname="troposphir.svg" xmlns:cc="http://creativecommons.org/ns#" xmlns:dc="http://purl.org/dc/elements/1.1/" xmlns:inkscape="http://www.inkscape.org/namespaces/inkscape" xmlns:rdf="http://www.w3.org/1999/02/22-rdf-syntax-ns#" xmlns:sodipodi="http://sodipodi.sourceforge.net/DTD/sodipodi-0.dtd" xmlns:svg="http://www.w3.org/2000/svg"
	 xmlns="http://www.w3.org/2000/svg" xmlns:xlink="http://www.w3.org/1999/xlink" x="0px" y="0px" viewBox="0 0 560 560"
	 style="enable-background:new 0 0 560 560;" xml:space="preserve">
<style type="text/css">
	.st0{fill:#14536F;}
	.st1{fill:#01A0C7;}
	.st2{fill:#0B3B51;}
	.st3{fill:#FFFFFF;}
	.st4{fill-rule:evenodd;clip-rule:evenodd;fill:#DAF8FC;}
</style>
<sodipodi:namedview  bordercolor="#666666" borderopacity="1.0" id="base" inkscape:current-layer="layer1" inkscape:cx="37.48233" inkscape:cy="258.15065" inkscape:document-units="px" inkscape:pageopacity="0.0" inkscape:pageshadow="2" inkscape:window-height="818" inkscape:window-maximized="0" inkscape:window-width="1405" inkscape:window-x="301" inkscape:window-y="72" inkscape:zoom="0.49497475" pagecolor="#ffffff" showgrid="true">
	<inkscape:grid  empspacing="5" enabled="true" id="grid2996" snapvisiblegridlinesonly="true" type="xygrid" visible="true">
		</inkscape:grid>
</sodipodi:namedview>
<g id="layer1" transform="translate(0,-332.36215)" inkscape:groupmode="layer" inkscape:label="Layer 1">
	
		<path id="path3779-9" sodipodi:cx="360" sodipodi:cy="360" sodipodi:rx="240" sodipodi:ry="240" sodipodi:type="arc" class="st0" d="
		M520,612.4c0,132.5-107.5,240-240,240S40,744.9,40,612.4s107.5-240,240-240S520,479.8,520,612.4z"/>
	<path id="path3833" inkscape:connector-curvature="0" class="st1" d="M150,602.4v-160h90v60h-70v100H150z"/>
	<path id="path3827" inkscape:connector-curvature="0" class="st2" d="M30,632.4h140l150,130h140v40l-80,50l-120,20l-140-50l-70-90
		L30,632.4z"/>
	<path id="path3805" inkscape:connector-curvature="0" class="st3" d="M300,792.4l60-80h150l-30,80H300z"/>
	<path id="rect3800" inkscape:connector-curvature="0" sodipodi:nodetypes="ccccc" class="st3" d="M30,592.4h180l-60,80H30V592.4z"
		/>
	<path id="path3803" inkscape:connector-curvature="0" class="st1" d="M210,592.4l-60,80l150,120l60-80L210,592.4z"/>
	<path id="path3831" class="st1" d="M390,512.4v25h-10v20h10v25h-10v20h10v25h-10v20h10v25h-10v20h10v20h20v-20h40v20h20v-20h10v-20
		h-10v-25h10v-20h-10v-25h10v-20h-10v-25h10v-20h-10v-25h-20v25h-40v-25H390z M410,557.4h40v25h-40V557.4z M410,602.4h40v25h-40
		V602.4z M410,647.4h40v25h-40V647.4z"/>
	<path id="path3829" inkscape:connector-curvature="0" class="st3" d="M480,442.4H370l-60,80h220L480,442.4z"/>
	<path id="path3009" class="st4" d="M280,332.4c-154.6,0-280,125.4-280,280s125.4,280,280,280s280-125.4,280-280
		S434.6,332.4,280,332.4z M280,372.4c132.5,0,240,107.5,240,240s-107.5,240-240,240S40,744.9,40,612.4S147.5,372.4,280,372.4z"/>
</g>
</svg>
