<?xml version="1.0" encoding="utf-8"?>
<!-- Generator: Adobe Illustrator 23.0.6, SVG Export Plug-In . SVG Version: 6.00 Build 0)  -->
<svg version="1.1" id="Layer_1" xmlns="http://www.w3.org/2000/svg" xmlns:xlink="http://www.w3.org/1999/xlink" x="0px" y="0px"
	 viewBox="0 0 500 500" style="enable-background:new 0 0 500 500;" xml:space="preserve">
<style type="text/css">
	.st0{fill:#01202C;}
	.st1{fill:#1D82B8;}
	.st2{fill:#FFFFFF;}
	.st3{fill-rule:evenodd;clip-rule:evenodd;fill:#FFFFFF;}
</style>
<title>atmosphir_combined</title>
<g id="layer1">
	<path id="path3779-9" class="st0" d="M388.8,250.2c0,76.8-62.2,139-139,139s-139-62.2-139-139s62.2-139,139-139l0,0
		C326.6,111.2,388.8,173.4,388.8,250.2z"/>
	<path id="path3833" class="st1" d="M174.5,244.4v-92.7h52.1v34.8h-40.6v57.9H174.5z"/>
	<path id="path3827" class="st0" d="M105,261.8h81.1L273,337h81.1v23.2l-46.3,29l-69.5,11.6l-81.1-29l-40.6-52.1L105,261.8z"/>
	<path id="path3805" class="st2" d="M261.4,354.4l34.8-46.3H383l-17.4,46.3H261.4z"/>
	<path id="rect3800" class="st2" d="M105,238.6h104.3l-34.8,46.3H105V238.6z"/>
	<path id="path3803" class="st1" d="M209.3,238.6l-34.8,46.3l86.9,69.5l34.8-46.3L209.3,238.6z"/>
	<path id="path3831" class="st1" d="M313.5,192.3v14.5h-5.8v11.6h5.8v14.5h-5.8v11.6h5.8v14.5h-5.8v11.6h5.8v14.5h-5.8v11.6h5.8
		v11.6h11.6v-11.6h23.2v11.6h11.6v-11.6h5.8v-11.6h-5.8v-14.5h5.8v-11.6h-5.8v-14.5h5.8v-11.6h-5.8v-14.5h5.8v-11.6h-5.8v-14.5
		h-11.6v14.5h-23.2v-14.5H313.5z M325.1,218.3h23.2v14.5h-23.2V218.3z M325.1,244.4h23.2v14.5h-23.2V244.4z M325.1,270.4h23.2v14.5
		h-23.2V270.4z"/>
	<path id="path3829" class="st2" d="M365.7,151.7H302L267.2,198h127.4L365.7,151.7z"/>
	<path id="path3009" class="st3" d="M249.8,88c-89.6,0-162.2,72.6-162.2,162.2s72.6,162.2,162.2,162.2S412,339.7,412,250.2
		C412,160.6,339.4,88,249.8,88z M249.8,111.2c76.8,0,139,62.2,139,139s-62.2,139-139,139s-139-62.2-139-139l0,0
		C110.8,173.4,173.1,111.2,249.8,111.2z"/>
</g>
</svg>
