<?xml version="1.0" encoding="utf-8"?>
<!-- Generator: Adobe Illustrator 23.0.6, SVG Export Plug-In . SVG Version: 6.00 Build 0)  -->
<svg version="1.1" id="Layer_1" xmlns="http://www.w3.org/2000/svg" xmlns:xlink="http://www.w3.org/1999/xlink" x="0px" y="0px"
	 viewBox="0 0 500 500" style="enable-background:new 0 0 500 500;" xml:space="preserve">
<style type="text/css">
	.st0{fill:#005D94;}
</style>
<title>atmosphir_combined</title>
<path class="st0" d="M336.6,425.7c-1.9,0.6-3.8,1.2-5.6,1.9c-5.1,2.1-10.1,4.2-15.3,6.3c-2.1,0.7-3.7,2.5-4.2,4.6
	c-4.5,16.2-9.1,32.4-13.7,48.6c-0.9,3.1-1.7,6.3-2.5,9.5c-0.8,3-1.4,3.5-4.5,3.5c-26.4-0.1-52.7-0.1-79.1-0.1
	c-1.1,0-2.2,0.1-3.4,0.1c-2,0-2.6-0.4-3.2-2.3c-0.7-2.4-1.3-4.9-2-7.3c-4.9-17.1-9.9-34.2-14.8-51.2c-0.5-2.4-2.3-4.3-4.6-5.1
	c-6-2.3-11.9-4.9-17.7-7.4c-1.8-0.9-4-0.8-5.8,0.2c-10.2,5.7-20.4,11.3-30.6,17c-7.6,4.2-15.3,8.5-22.9,12.8c-2.2,1.2-3.1,1-4.9-0.7
	C84,437.5,65.8,419.3,47.7,401c-1.2-1.2-2.5-2.3-3.6-3.5c-1.7-1.7-1.8-2.8-0.6-4.9l23.5-42.3c2.2-3.9,4.3-7.7,6.5-11.6
	c0.8-1.2,0.9-2.7,0.4-4.1c-2.7-6.5-5.3-13-8-19.4c-0.7-1.8-2.3-3.1-4.2-3.5L5.6,295.6c-1.2-0.4-2.5-0.6-3.7-1
	c-1.1-0.2-1.9-1.2-1.8-2.3c0-1.5,0-2.9,0-4.4v-74.1c0-2,0-4-0.1-6.1c0-1.5,0.9-2.1,2.2-2.5c5.9-1.7,11.7-3.3,17.6-5
	c14-4,28-8.1,42-12.1c1.7-0.4,3.2-1.6,3.9-3.3c2.7-6.4,5.4-12.8,8.1-19.1c0.7-1.5,0.5-3.3-0.3-4.7c-9.2-16.6-18.4-33.2-27.6-49.8
	c-0.7-1.2-1.5-2.4-2.2-3.7c-1.3-2.3-1.2-3.5,0.7-5.4C50,96.5,55.8,90.8,61.5,85c12.8-12.9,25.6-25.7,38.3-38.6
	c0.8-0.8,1.5-1.6,2.3-2.4c1.7-1.7,2.6-1.8,4.7-0.7c3.2,1.8,6.3,3.6,9.4,5.3c13.7,7.6,27.3,15.1,41,22.6c0.9,0.5,1.9,1.1,2.8,1.6
	c1.7,1.2,4,1.4,5.9,0.5c6.2-2.7,12.4-5.2,18.7-7.8c1.8-0.7,3.1-2.2,3.6-4.1c5.5-19.1,11.1-38.3,16.6-57.4c1.4-4.8,1.4-4.1,5.5-4.1
	c27.2,0,54.5,0,81.7,0c2.1,0,2.6,0.5,3.3,3.1c1.8,6.7,3.7,13.4,5.5,20.1c3.6,12.9,7.2,25.8,10.9,38.7c0.4,1.6,1.5,3,3,3.6l15.1,6
	c1.7,0.7,3.4,1.4,5.1,2.1c1.3,0.5,2.8,0.4,4-0.4l54.2-30c2.1-1.2,2.9-1.1,4.8,0.8c5.5,5.5,11,11.1,16.5,16.6
	c12.8,12.9,25.7,25.9,38.5,38.8c0.9,0.9,1.9,1.8,2.8,2.7c1.9,1.8,2.1,2.9,0.7,5.2c-2,3.6-4,7.1-6,10.7c-7.4,13.3-14.7,26.7-22.1,40
	c-0.5,1-1.1,1.9-1.7,2.9c-0.9,1.4-1,3.1-0.3,4.6c2.5,6,5.1,12,7.6,18c0.9,2.5,3.1,4.3,5.7,4.9c18.1,5.2,36.2,10.4,54.4,15.7
	c1.4,0.4,2.8,0.8,4.2,1.2c1.1,0.2,1.9,1.2,1.8,2.4c0,1.3,0,2.6,0,3.9c0,25.1,0,50.2,0,75.3c0,1.7,0.1,3.4,0.1,5
	c0.1,1.4-0.9,2.6-2.3,2.9c-4.7,1.3-9.5,2.6-14.1,3.9c-15.2,4.4-30.4,8.8-45.5,13.2c-1.5,0.3-2.7,1.4-3.4,2.8
	c-2.9,6.8-5.7,13.5-8.6,20.3c-0.6,1.5,0,2.9,0.7,4.3l8.7,15.8c6.3,11.3,12.5,22.7,18.8,34c0.8,1.4,1.6,2.7,2.3,4
	c0.9,1.6,0.8,2.5-0.5,3.9c-0.8,0.9-1.7,1.7-2.6,2.5c-17.3,17.4-34.7,34.9-52,52.3c-1.4,1.4-2.6,2.9-4.1,4.1
	c-1.8,1.7-2.5,1.7-4.6,0.5l-14.9-8.3c-12.9-7.1-25.8-14.3-38.8-21.4C338.5,426.3,337.6,426,336.6,425.7z"/>
</svg>
