<?xml version="1.0" encoding="utf-8"?>
<!-- Generator: Adobe Illustrator 23.0.6, SVG Export Plug-In . SVG Version: 6.00 Build 0)  -->
<svg version="1.1"
	 id="svg15" xmlns:cc="http://creativecommons.org/ns#" xmlns:dc="http://purl.org/dc/elements/1.1/" xmlns:inkscape="http://www.inkscape.org/namespaces/inkscape" xmlns:rdf="http://www.w3.org/1999/02/22-rdf-syntax-ns#" xmlns:sodipodi="http://sodipodi.sourceforge.net/DTD/sodipodi-0.dtd" xmlns:svg="http://www.w3.org/2000/svg"
	 xmlns="http://www.w3.org/2000/svg" xmlns:xlink="http://www.w3.org/1999/xlink" x="0px" y="0px" viewBox="0 0 957 935"
	 style="enable-background:new 0 0 957 935;" xml:space="preserve">
<style type="text/css">
	.st0{fill:#1677C1;}
	.st1{fill-rule:evenodd;clip-rule:evenodd;fill-opacity:0.5647;}
	.st2{fill:#FFFFFF;}
</style>
<sodipodi:namedview  bordercolor="#666666" borderopacity="1" gridtolerance="10" guidetolerance="10" id="namedview17" inkscape:current-layer="svg15" inkscape:cx="-1648.5737" inkscape:cy="2477.8092" inkscape:pageopacity="0" inkscape:pageshadow="2" inkscape:window-height="1057" inkscape:window-maximized="1" inkscape:window-width="1858" inkscape:window-x="54" inkscape:window-y="-8" inkscape:zoom="0.081483008" objecttolerance="10" pagecolor="#ffffff" showgrid="false">
	</sodipodi:namedview>
<path id="gear" class="st0" d="M394.8,0c-1.8,1.4-2.1,5.1-2.7,7.1l-5,17.7c-6.7,22.8-13.6,45.5-20.2,68.4
	c-1.9,6.5-3.9,12.9-5.8,19.3c-1.1,3.7-1.7,7.2-5.6,9c-10,4.7-20.7,8.4-31,12.4c-3.5,1.4-8.6,4.7-12.5,4.2c-3-0.4-6-2.8-8.6-4.1
	c-6-3.2-11.9-6.4-17.8-9.6c-19.6-10.5-39.2-21.1-58.8-31.7c-5.9-3.2-11.9-6.4-17.8-9.6c-2.3-1.2-5.2-3.6-7.9-3.8
	c-3.3-0.3-6.5,4.2-8.6,6.3l-20.5,20c-20.8,20.3-41.3,40.9-62.1,61.3l-19.1,18.7c-2.7,2.6-7,5.6-8.7,9c-1.7,3.4,3.4,9.4,5,12.3
	c6.3,10.9,12.3,22,18.6,32.9c8.8,15.2,17.2,30.6,25.9,45.8l7.3,12.9c1.2,2.1,3.2,4.5,3.2,7.1c0.1,4-3.3,9.3-4.9,12.9
	c-2.9,6.6-5.6,13.3-8.5,20c-1.3,3.1-2.4,6.8-4.3,9.6c-1.8,2.7-4.9,3.2-7.9,4c-5.7,1.6-11.4,3.3-17.2,4.9l-70,19.7
	c-7.3,2-14.5,4.2-21.8,6.2c-2.2,0.6-6.3,1-7,3.5c-1.1,3.5-0.2,8.4-0.2,12.1v141c0,2.5-1.1,8.4,1.1,10.2c1.9,1.6,5.8,2,8.2,2.7
	l19.1,5.4c22,6.1,44,12.4,66,18.6l19.1,5.4c2.9,0.8,6.7,1.3,9.1,3.1c3.8,3.1,5.6,10.7,7.4,15.1c2.8,6.7,5.7,13.3,8.5,20
	c1.1,2.7,3.4,6,3.3,9c-0.1,2.5-2,5-3.2,7.1c-2.6,4.5-5.1,9-7.6,13.5c-9.3,16.6-19.1,32.9-28.1,49.7c-5.4,10-11.2,19.8-16.8,29.7
	c-1.5,2.7-5.9,7.8-4.3,11c1.7,3.4,6,6.4,8.7,9l19.1,18.7c20.8,20.3,41.3,40.9,62.1,61.3l20.5,20c2.1,2,5.3,6.6,8.6,6.3
	c2.7-0.3,5.6-2.6,7.9-3.8c6-3.2,11.9-6.4,17.8-9.6c19.5-10.6,39.1-21.2,58.8-31.7c6-3.2,11.9-6.5,17.8-9.6c2.6-1.4,5.6-3.7,8.6-4.2
	c3.9-0.6,9,2.8,12.5,4.2c10.1,4,20.4,7.8,30.4,12.1c4.5,2,5.1,5.6,6.4,9.9l6.3,21.3l18.3,61.9l5.4,18.1c0.9,2.9,1.3,6.8,3,9.5
	c1.6,2.5,6.9,1.5,9.5,1.5h148c3,0,8.2,1,10.9-0.4c2.9-1.4,3.7-9,4.5-11.9c3.4-11.6,6.7-23.2,10.1-34.8c4.9-16.7,10-33.5,14.6-50.3
	c1.4-5,2.8-9.9,4.3-14.8c0.7-2.4,1.1-5.6,2.8-7.6c2.7-3.2,9-4.6,12.8-6.1c10.1-4,20.5-9.5,31-12.3c3.3-0.9,5.9,1,8.6,2.5
	c5,2.8,10.1,5.5,15.2,8.2c21.4,11.4,42.7,23,64,34.6c6.6,3.6,13.2,7.1,19.8,10.7c2.6,1.4,5.7,3.9,8.6,2c3.7-2.3,6.8-6.4,9.9-9.4
	l18.5-18.1c20.4-19.9,40.4-40.1,60.7-60l21.1-20.6c2.1-2,6.7-5.1,6.4-8.4c-0.3-2.7-2.7-5.5-3.9-7.7c-3.2-5.8-6.5-11.6-9.8-17.4
	c-10.9-19.1-21.7-38.2-32.5-57.4c-3.6-6.5-7.3-12.9-10.9-19.3c-1.8-3.2-4-5.9-2.6-9.7c3.5-9.4,8.1-18.5,12.1-27.7
	c1.8-4.1,3.2-10.2,6.5-13.3c1.8-1.8,4.6-2.2,7-2.9l13.9-4c16.9-4.8,34-9.3,50.8-14.4c12.5-3.8,25.1-7.1,37.6-10.6
	c3-0.8,11.3-1.8,12.8-4.7c1.4-2.7,0.4-7.7,0.4-10.7v-25.1v-90.9v-28.4c0-2.5,1-7.7-1.5-9.3c-2.2-1.3-5.3-1.6-7.7-2.4
	c-6.3-1.9-12.8-3.6-19.1-5.4c-19.8-5.7-39.6-11.3-59.4-16.9c-8.4-2.3-16.8-4.6-25.1-7.1c-3.1-0.9-7.3-1.3-9.7-3.6
	c-3.8-3.7-5.5-11.2-7.6-15.9l-8.2-18.7c-1.2-2.7-3.4-6.1-3.4-9c0-2.7,2.3-5.4,3.6-7.7c3.4-6,6.8-12.1,10.2-18.1
	c11-19.3,21.8-38.7,32.8-58c3.3-5.8,6.6-11.6,9.8-17.4c1.3-2.3,3.7-5.1,3.9-7.7c0.3-3.3-4.3-6.4-6.4-8.4l-15-18c-22-21-43-42-64-63
	l-18-18c-2.5-2.5-5.3-6.3-8.6-7.9c-2.6-1.2-5.7,1.2-7.9,2.4c-6.6,3.6-13.2,7.1-19.8,10.7c-21.1,11.5-42.2,23-63.4,34.2
	c-5.3,2.8-10.6,5.6-15.8,8.5c-2.4,1.3-5,3.2-7.9,2.7c-3.6-0.7-7.2-2.8-10.6-4.1l-21.8-8.6c-3.6-1.4-9.6-2.8-12.2-5.8
	c-1.7-2-2.1-5.1-2.8-7.6l-4.6-16.1c-5.6-19.3-11.2-38.7-16.9-58c-2.7-9-5.2-18.1-7.8-27.1c-0.8-2.7-1.3-8.5-3.7-10.3
	c-1.7-1.3-5.4-0.7-7.4-0.7h-19.8h-124h-11.9c-1.5,0-3.5-0.3-4.8,0.7L394.8,0z"/>
<path id="path3" class="st1" d="M192.8,492.8l192,10l160,122l184-4l-44,86l-88,52l-128,22l-76-8l-72-34l-54-40l-50-54l-30-46l-16-80
	l14-22L192.8,492.8z"/>
<path id="path5" class="st1" d="M180.8,460.8l4-114l48-64l60-64l74-38l70-8l72-12l86,20l80,42l32,30l22,44l32,54c0,0,18,46,20,56
	s4,42,4,58s-8,76-10,88s-30,68-30,68l-64,30l-102-18c0,0-94-32-104-40s-48-36-56-42s-74-58-82-58s-72-8-72-8L180.8,460.8z"/>
<path id="path7" class="st0" d="M324.8,443.8v-176h106v65.8H348v110L324.8,443.8z"/>
<path id="path9" class="st2" d="M477.8,136.8c-182,0-330,148-330,330s148,330,330,330s330-148,330-330S659.8,136.8,477.8,136.8z
	 M477.8,184c78,0,149,31.6,200,82.6h-93.7L513.3,361h227c13.3,32.8,20.6,68.6,20.6,106c0,42.1-9.2,82.1-25.7,118h-163l-70.8,94.4
	h164c-49.9,44-115,70.8-187,70.8c-132,0-243-90.2-274-212h121l70.8-94.4h-200c11-146,133-260,281-260L477.8,184z"/>
<path id="path11" class="st0" d="M395.8,443.8L325,538.2l177,142l70.8-94.4L395.8,443.8z"/>
<path id="path13" class="st0" d="M607.8,360.8v28H596v22.4h11.8v28H596v22.4h11.8v28H596V512h11.8v28H596v22.4h11.8v22.4h23.6v-22.4
	h47.2v22.4h23.6v-22.4H714V540h-11.8v-28H714v-22.4h-11.8v-28H714v-22.4h-11.8v-28H714v-22.4h-11.8v-28h-23.6v28h-47.2v-28
	L607.8,360.8L607.8,360.8z M631.4,411.2h47.2v28h-47.2V411.2L631.4,411.2z M631.4,461.6h47.2v28h-47.2V461.6z M631.4,512h47.2v28
	h-47.2V512z"/>
</svg>
